<svg id="Layer_1" data-name="Layer 1" xmlns="http://www.w3.org/2000/svg" viewBox="0 0 638 336.27"><defs><style>.cls-1{fill:#0091d9;}</style></defs><title>Cisco Logo Vector</title><rect class="cls-1" x="180.46" y="223.43" width="27.97" height="110.86"/><path class="cls-1" d="M615,587.08a49,49,0,0,0-23.5-6c-18.12,0-30.67,12.65-30.67,29.58,0,16.46,12,29.58,30.67,29.58a49.58,49.58,0,0,0,23.5-5.86v29.76a89.13,89.13,0,0,1-25.49,3.94c-31.47,0-59.07-21.69-59.07-57.42,0-33.11,25-57.35,59.07-57.35A85.83,85.83,0,0,1,615,557.31Z" transform="translate(-181 -331.86)"/><path class="cls-1" d="M323,587.08a48.92,48.92,0,0,0-23.48-6c-18.15,0-30.68,12.65-30.68,29.58,0,16.46,12,29.58,30.68,29.58A49.64,49.64,0,0,0,323,634.43v29.76a88.81,88.81,0,0,1-25.54,3.94c-31.41,0-59-21.69-59-57.42,0-33.11,25-57.35,59-57.35A86.08,86.08,0,0,1,323,557.31Z" transform="translate(-181 -331.86)"/><path class="cls-1" d="M761.55,610.71c0,31.71-24.47,57.43-58.55,57.43s-58.55-25.72-58.55-57.43S668.9,553.36,703,553.36s58.55,25.68,58.55,57.35M703,581.56c-16.61,0-29,13.08-29,29.15s12.34,29.2,29,29.2,29-13,29-29.2-12.36-29.15-29-29.15" transform="translate(-181 -331.86)"/><path class="cls-1" d="M495.53,580.51c-.4-.14-12.22-3.41-21.86-3.41-11.24,0-17.31,3.78-17.31,9.12,0,6.72,8.23,9.08,12.81,10.54l7.72,2.46c18.15,5.75,26.43,18.2,26.43,31.69,0,27.87-24.51,37.22-45.91,37.22a169.29,169.29,0,0,1-30.19-3V639.58c2.47.62,14.19,4.12,26.42,4.12,13.94,0,20.33-4.05,20.33-10.38,0-5.59-5.55-8.82-12.45-11-1.73-.58-4.27-1.38-6-2C440,615.47,426.93,606.31,426.93,588c0-20.72,15.53-34.67,41.34-34.67a119.49,119.49,0,0,1,27.26,3.54Z" transform="translate(-181 -331.86)"/><path class="cls-1" d="M208.79,436.16a13.9,13.9,0,0,0-27.79,0v29.1a13.9,13.9,0,0,0,27.79,0Z" transform="translate(-181 -331.86)"/><path class="cls-1" d="M285.09,398a13.89,13.89,0,0,0-27.77,0v67.29a13.89,13.89,0,0,0,27.77,0Z" transform="translate(-181 -331.86)"/><path class="cls-1" d="M361.35,345.71a13.89,13.89,0,0,0-27.77,0V492.92a13.89,13.89,0,1,0,27.77,0Z" transform="translate(-181 -331.86)"/><path class="cls-1" d="M437.65,398a13.88,13.88,0,0,0-27.75,0v67.29a13.88,13.88,0,0,0,27.75,0Z" transform="translate(-181 -331.86)"/><path class="cls-1" d="M513.85,436.16a13.85,13.85,0,0,0-27.69,0v29.1a13.85,13.85,0,1,0,27.69,0Z" transform="translate(-181 -331.86)"/><path class="cls-1" d="M590.2,398a13.85,13.85,0,1,0-27.7,0v67.29a13.85,13.85,0,1,0,27.7,0Z" transform="translate(-181 -331.86)"/><path class="cls-1" d="M666.51,345.71a13.85,13.85,0,1,0-27.69,0V492.92a13.85,13.85,0,1,0,27.69,0Z" transform="translate(-181 -331.86)"/><path class="cls-1" d="M742.82,398A13.93,13.93,0,0,0,715,398v67.29a13.93,13.93,0,0,0,27.86,0Z" transform="translate(-181 -331.86)"/><path class="cls-1" d="M819,436.16a13.85,13.85,0,0,0-27.69,0v29.1a13.85,13.85,0,1,0,27.69,0Z" transform="translate(-181 -331.86)"/><polygon class="cls-1" points="621.98 319.69 621.98 321.42 617.07 321.42 617.07 334.29 615 334.29 615 321.42 610.03 321.42 610.03 319.69 621.98 319.69"/><polygon class="cls-1" points="623.02 319.69 626.2 319.69 630.56 331.63 630.66 331.63 634.89 319.69 638 319.69 638 334.29 635.9 334.29 635.9 322.34 635.84 322.34 631.39 334.29 629.45 334.29 625.13 322.34 625.08 322.34 625.08 334.29 623.02 334.29 623.02 319.69"/></svg>