<svg width="800" height="800" viewBox="0 0 800 800" fill="none" xmlns="http://www.w3.org/2000/svg">
<path d="M399.992 799.934C270.582 799.934 141.173 799.936 11.7638 799.926C9.08583 799.926 6.3967 799.916 3.73153 799.693C1.63107 799.517 0.519234 798.39 0.325666 796.221C0.0873045 793.558 0.0713257 790.868 0.0697259 788.19C0.056928 722.481 0.0601083 656.773 0.0601083 591.064C0.0601083 545.916 0.0505177 500.768 0.0681149 455.621C0.0729141 444.942 -0.453391 446.62 6.85102 439.278C17.7276 428.345 28.6539 417.461 39.5577 406.555C40.6631 405.448 41.8005 404.371 42.8643 403.224C45.5951 400.284 45.6271 399.67 42.6356 396.611C37.7916 391.658 32.8548 386.795 27.9564 381.895C20.0553 373.991 12.2341 366.007 4.21304 358.227C1.26472 355.368 -0.298226 352.242 0.0473175 348.136C0.178496 346.582 0.0617194 345.008 0.0617194 343.444C0.0617194 233.033 0.0601162 122.621 0.0681149 12.2099C0.0681149 9.52869 0.0345326 6.83791 0.245698 4.17115C0.445666 1.64996 1.58946 0.57333 4.01786 0.246983C5.12008 0.0982076 6.2463 0.0997993 7.36292 0.0838019C9.14983 0.0566063 10.9384 0.0694244 12.7269 0.0694244C270.875 0.0694244 529.023 0.0678211 787.17 0.0758198C790.074 0.0758198 792.987 0.0470167 795.879 0.267781C798.426 0.461349 799.496 1.58596 799.746 4.05276C799.925 5.82527 799.906 7.62337 799.906 9.41028C799.912 122.056 799.883 234.703 800 347.349C800.005 352.462 798.487 356.213 794.85 359.752C783.318 370.972 772.035 382.452 760.659 393.832C759.395 395.096 758.101 396.336 756.898 397.657C754.843 399.916 754.825 400.654 756.738 402.757C757.789 403.914 758.928 404.991 760.034 406.098C771.569 417.637 782.984 429.3 794.711 440.641C798.57 444.371 800.01 448.347 799.997 453.643C799.859 512.424 799.91 571.207 799.912 629.989C799.912 682.96 799.915 735.93 799.904 788.901C799.904 791.356 799.893 793.821 799.678 796.264C799.49 798.406 798.4 799.497 796.253 799.693C793.812 799.913 791.347 799.929 788.891 799.929C730.779 799.936 672.667 799.934 614.557 799.934C543.036 799.934 471.514 799.934 399.992 799.934ZM400.435 51.7154C287.789 51.7154 175.145 51.7154 62.4996 51.7202C60.0424 51.7202 57.5787 51.6898 55.1295 51.8578C52.9235 52.0098 51.994 53.0048 51.8213 55.3084C51.6709 57.3097 51.7093 59.3286 51.7093 61.3394C51.7045 147.834 51.7061 234.329 51.7061 320.822C51.7061 321.716 51.8053 322.623 51.6917 323.501C51.119 327.918 52.8163 331.315 56.1966 334.052C57.2332 334.892 58.1082 335.93 59.0553 336.878C73.9089 351.737 88.764 366.592 103.611 381.457C105.19 383.037 106.827 384.578 108.249 386.293C114.931 394.346 115.032 405.326 108.489 413.46C107.094 415.194 105.462 416.745 103.883 418.326C92.1987 430.031 80.4982 441.722 68.8041 453.416C65.0111 457.209 61.4325 461.253 57.3708 464.731C52.8739 468.58 51.143 473.127 51.6469 478.927C51.9748 482.698 51.7077 486.521 51.7077 490.321C51.7077 572.794 51.7061 655.265 51.7141 737.738C51.7141 740.193 51.7141 742.657 51.8948 745.105C52.0324 746.957 53.0483 747.968 54.8912 748.101C57.3388 748.277 59.8008 748.28 62.258 748.28C157.47 748.288 252.681 748.287 347.895 748.287C477.526 748.287 607.158 748.286 736.788 748.282C739.469 748.282 742.155 748.303 744.827 748.128C747.036 747.984 747.954 746.989 748.136 744.682C748.293 742.681 748.263 740.664 748.264 738.653C748.269 652.158 748.269 565.662 748.269 479.167C748.269 477.827 748.165 476.476 748.277 475.145C748.564 471.736 747.258 469.081 744.723 466.884C743.544 465.862 742.501 464.683 741.394 463.578C726.38 448.564 711.363 433.552 696.356 418.532C694.777 416.952 693.11 415.43 691.73 413.687C686.961 407.67 685.556 400.967 687.798 393.525C689.071 389.297 691.739 386.093 694.782 383.06C710.607 367.277 726.399 351.462 742.201 335.655C743.465 334.391 744.697 333.093 745.969 331.836C747.477 330.344 748.248 328.568 748.22 326.434C748.202 325.093 748.261 323.753 748.261 322.412C748.264 235.023 748.264 147.633 748.256 60.2436C748.256 58.4583 748.245 56.6634 748.072 54.8893C747.892 53.0416 746.924 52.0386 745.063 51.901C742.616 51.7218 740.152 51.7218 737.697 51.7218C625.278 51.7154 512.856 51.7154 400.435 51.7154Z" fill="black"/>
<path d="M484.624 536.591C484.561 539.005 484.446 541.418 484.444 543.832C484.432 577.789 484.435 611.745 484.436 645.703C484.436 649.056 484.398 652.388 483.587 655.689C482.557 659.875 479.912 662.22 475.767 662.923C474.235 663.182 472.654 663.241 471.096 663.246C462.83 663.276 454.564 663.287 446.299 663.241C444.521 663.231 442.715 663.113 440.973 662.779C437.377 662.088 434.889 660.048 434.12 656.324C433.76 654.582 433.459 652.812 433.333 651.04C433.19 649.038 433.262 647.021 433.262 645.01C433.261 580.446 433.256 515.884 433.274 451.32C433.274 448.422 433.277 445.499 433.625 442.629C434.198 437.916 436.796 434.827 441.637 434.021C443.83 433.656 446.055 433.314 448.271 433.285C455.195 433.192 462.122 433.248 469.047 433.261C470.164 433.263 471.28 433.312 472.395 433.39C479.378 433.875 484.673 436.892 487.959 443.312C492.336 451.861 496.946 460.288 501.394 468.801C514.22 493.349 527.009 517.916 539.83 542.467C542.828 548.208 545.892 553.916 548.952 559.624C549.248 560.178 549.731 560.632 550.211 561.237C551.8 559.922 551.088 558.256 551.089 556.846C551.133 523.336 551.123 489.824 551.125 456.315C551.125 452.963 551.08 449.612 551.163 446.262C551.208 444.485 551.31 442.675 551.697 440.949C552.436 437.654 554.463 435.417 557.773 434.44C560.141 433.741 562.537 433.254 565.022 433.258C572.841 433.269 580.661 433.21 588.477 433.312C590.462 433.338 592.454 433.79 594.42 434.171C598.423 434.944 600.624 437.543 601.273 441.444C601.972 445.632 602.32 449.855 602.307 454.117C602.26 470.424 602.289 486.734 602.289 503.042C602.289 549.285 602.281 595.53 602.3 641.774C602.302 646.026 602.222 650.265 601.476 654.462C600.515 659.865 598.143 662.18 592.7 663.014C591.601 663.182 590.475 663.236 589.36 663.238C580.648 663.247 571.934 663.281 563.224 663.185C561.238 663.163 559.224 662.803 557.282 662.347C552.814 661.3 549.979 658.189 547.877 654.346C544.555 648.272 541.254 642.185 538.055 636.045C523.71 608.511 509.418 580.947 495.075 553.411C492.094 547.689 488.98 542.037 485.927 536.351C485.495 536.431 485.06 536.511 484.624 536.591Z" fill="black"/>
<path d="M199.805 251.651C199.805 218.805 199.792 185.958 199.828 153.112C199.831 150.218 199.932 147.294 200.367 144.441C200.922 140.794 203.205 138.535 206.822 137.548C209.01 136.951 211.211 136.745 213.449 136.747C238.474 136.763 263.508 136.399 288.524 136.954C304.321 137.305 319.558 140.965 333.004 149.879C351.908 162.409 362.982 180.111 366.866 202.358C368.522 211.845 368.741 221.473 368.926 231.061C369.195 244.91 369.184 258.77 368.931 272.619C368.76 281.984 368.339 291.361 366.824 300.648C364.511 314.821 358.949 327.613 350.448 339.121C340.889 352.062 327.943 360 312.492 363.861C304.468 365.868 296.269 366.827 287.943 366.794C264.259 366.696 240.573 366.765 216.887 366.755C214.878 366.755 212.854 366.795 210.859 366.602C203.534 365.887 200.487 362.812 199.919 355.551C199.744 353.329 199.812 351.084 199.812 348.851C199.804 316.45 199.805 284.05 199.805 251.651ZM254.084 251.419C254.084 271.057 254.083 290.694 254.088 310.333C254.088 312.34 254.041 314.354 254.172 316.356C254.371 319.381 255.196 320.246 258.37 320.323C263.723 320.453 269.085 320.264 274.435 320.437C280.048 320.617 285.572 319.979 291.08 319.091C298.917 317.829 304.682 313.628 308.004 306.41C309.299 303.596 310.158 300.555 310.958 297.547C312.4 292.12 312.667 286.536 312.672 280.945C312.688 261.977 312.697 243.009 312.681 224.041C312.68 221.589 312.617 219.127 312.409 216.684C311.913 210.88 310.779 205.222 308.501 199.81C304.831 191.094 298.426 185.903 289.107 184.161C278.688 182.213 268.194 183.339 257.733 183.246C255.209 183.224 254.356 184.376 254.177 187.151C254.049 189.152 254.089 191.166 254.089 193.174C254.083 212.59 254.084 232.005 254.084 251.419Z" fill="black"/>
<path d="M520.179 136.718C525.541 136.718 530.903 136.713 536.265 136.721C537.828 136.725 539.393 136.755 540.956 136.793C546.462 136.929 550.276 139.606 552.341 144.65C553.608 147.745 554.69 150.924 555.741 154.103C572.359 204.368 588.955 254.64 605.565 304.908C610.54 319.968 615.547 335.019 620.521 350.079C621.151 351.985 621.853 353.896 622.2 355.862C623.211 361.579 620.416 365.505 614.737 366.485C613.426 366.713 612.068 366.738 610.732 366.741C601.124 366.757 591.517 366.749 581.909 366.732C580.794 366.73 579.673 366.677 578.564 366.554C574.746 366.127 571.743 364.303 570.03 360.853C568.745 358.268 567.684 355.542 566.806 352.789C563.955 343.851 561.242 334.87 558.462 325.911C556.195 318.61 556.185 318.57 548.819 318.562C528.71 318.54 508.601 318.554 488.492 318.554C487.598 318.554 486.704 318.537 485.811 318.573C481.518 318.754 480.825 319.12 479.536 323.16C477.566 329.328 475.824 335.571 473.952 341.773C472.534 346.478 471.116 351.184 469.595 355.857C468.974 357.759 468.179 359.621 467.288 361.416C465.783 364.449 463.205 366.09 459.881 366.497C458.334 366.685 456.762 366.733 455.2 366.738C446.486 366.764 437.773 366.757 429.059 366.757C428.165 366.757 427.269 366.767 426.379 366.705C419.246 366.215 416.301 362.795 417.095 355.772C417.267 354.24 417.746 352.72 418.237 351.246C440.526 284.502 462.833 217.763 485.138 151.023C485.704 149.327 486.278 147.636 486.848 145.942C488.87 139.924 493.069 136.886 499.403 136.777C500.966 136.75 502.53 136.725 504.095 136.721C509.454 136.713 514.816 136.718 520.179 136.718ZM518.694 196.579C518.27 196.523 517.846 196.465 517.422 196.409C516.717 198.449 515.938 200.468 515.318 202.533C508.867 224.104 502.434 245.683 496.018 267.263C495.447 269.183 494.946 271.133 494.554 273.096C494.264 274.547 495.203 275.708 496.672 275.943C497.329 276.049 498.001 276.11 498.665 276.111C512.045 276.121 525.424 276.153 538.804 276.092C542.121 276.078 542.664 275.195 541.863 271.943C541.703 271.293 541.519 270.65 541.324 270.01C534.2 246.545 527.08 223.08 519.937 199.622C519.62 198.577 519.113 197.591 518.694 196.579Z" fill="black"/>
<path d="M284.197 663.279C261.403 663.277 238.61 663.292 215.819 663.258C213.146 663.253 210.439 663.199 207.809 662.788C203.613 662.132 201.004 659.548 200.284 655.327C199.948 653.357 199.845 651.33 199.831 649.328C199.78 641.954 199.927 634.576 199.767 627.206C199.662 622.29 201.108 618.049 203.923 614.066C215.403 597.829 226.795 581.529 238.212 565.248C253.222 543.845 268.226 522.438 283.233 501.033C286.311 496.642 289.4 492.259 292.461 487.855C293.224 486.757 293.933 485.617 294.593 484.455C295.089 483.583 294.577 482.462 293.653 482.414C291.647 482.31 289.636 482.262 287.626 482.26C263.939 482.251 240.253 482.257 216.566 482.248C214.333 482.246 212.085 482.304 209.868 482.094C204.667 481.601 202.224 479.374 201.146 474.385C201.052 473.95 201.001 473.503 200.946 473.06C199.71 463.038 199.647 452.996 200.922 442.992C201.746 436.522 203.92 434.484 210.239 433.547C212.216 433.254 214.248 433.254 216.256 433.252C260.277 433.238 304.299 433.244 348.32 433.236C351.683 433.236 355.007 433.371 358.263 434.38C361.291 435.319 363.23 437.218 364.147 440.245C364.934 442.841 365.196 445.49 365.191 448.188C365.178 455.114 365.063 462.044 365.233 468.968C365.359 474.11 363.937 478.621 360.949 482.763C355.85 489.83 350.848 496.965 345.796 504.065C320.925 539.019 296.049 573.969 271.187 608.929C270.416 610.014 269.717 611.163 269.116 612.35C268.777 613.02 269.121 613.831 269.85 613.911C271.835 614.128 273.843 614.242 275.841 614.244C300.869 614.264 325.895 614.255 350.923 614.261C353.158 614.261 355.399 614.202 357.625 614.36C365.094 614.895 367.711 618.176 368.298 623.994C369.311 634.031 369.551 644.064 368.168 654.066C367.261 660.631 364.63 662.837 357.94 663.207C355.711 663.33 353.472 663.279 351.237 663.279C328.888 663.282 306.542 663.28 284.197 663.279Z" fill="black"/>
</svg>
