<svg id="Layer_1" data-name="Layer 1" xmlns="http://www.w3.org/2000/svg" viewBox="0 0 638 146.48"><defs><style>.cls-1{fill:#121441;fill-rule:evenodd;}</style></defs><title>Electrolux Logo Vector</title><path class="cls-1" d="M181,573.24H327.47V426.76H181V573.24ZM274.88,438h0a65.28,65.28,0,0,1,44.66,62c.07,28.53-18.26,53-44.66,62.06V438Zm-20.67-3.32h0A73.93,73.93,0,0,1,268,436.08c0,33.19-32.09,60.5-65.22,60.5l-13.85,0c2.27-34,30.42-61.93,65.26-61.93Zm-51.4,68.85h0c33.12,0,65.2,27.28,65.2,60.44a73.45,73.45,0,0,1-13.8,1.48c-34.85,0-64-28-65.27-61.91h13.87Z" transform="translate(-181 -426.76)"/><path class="cls-1" d="M376.5,512.87v-9.23H407V491.87H376.49V474.73h32.42V463H364v49.35c0,12.47,5.32,21,17.79,22.76a3.15,3.15,0,0,0,.72.11h.23a36,36,0,0,0,3.95.24h23.08V523.72h-23C382.84,523.72,376.5,521.76,376.5,512.87Z" transform="translate(-181 -426.76)"/><polygon class="cls-1" points="237.65 70.47 237.65 108.7 250.13 108.7 250.13 70.22 250.13 36.21 237.65 36.21 237.65 70.47"/><path class="cls-1" d="M466.91,481.39c-15.77,0-27.58,10.86-27.58,27.79v.42c0,16.5,11.39,27.16,27.9,27.16,7.94,0,15.35-2.19,22.14-9.4L481.85,520c-4,4-7.83,6.06-14.2,6.06-9.3,0-15.47-5.43-15.88-13.79h41c.21-2.09.21-4.38.21-4.38,0-14.73-10.35-26.54-26-26.54Zm-14.83,22.15h0c.52-6.38,7-11.49,14.83-11.49,7.32,0,13.27,5.22,13.27,11.49Z" transform="translate(-181 -426.76)"/><path class="cls-1" d="M528,492.57a17.66,17.66,0,0,1,13.37,5.74l7.73-8a27.68,27.68,0,0,0-21.1-9.09c-15.88,0-28.63,11.81-28.63,27.89S512.12,537,528,537a27.68,27.68,0,0,0,21.1-9.09l-7.73-8A17.66,17.66,0,0,1,528,525.58c-9.2,0-16.2-7-16.2-16.51S518.8,492.57,528,492.57Z" transform="translate(-181 -426.76)"/><path class="cls-1" d="M569.35,512.89h0V494.38h11.36V483H569.35V463H556.87v50.66h0c.35,11.77,5.7,19.8,17.74,21.49a3.32,3.32,0,0,0,.73.11h.23a35.78,35.78,0,0,0,3.94.24h1.32l0-11.73h-1.26C575.69,523.74,569.35,521.78,569.35,512.89Z" transform="translate(-181 -426.76)"/><path class="cls-1" d="M603.57,490.84v-7.79H591.19v52.42h12.38V507.9c0-8.63,5.51-14,14.14-14a25.29,25.29,0,0,1,5.2.52V482.32a25.68,25.68,0,0,0-3.74-.31C611.68,482,606.06,485.44,603.57,490.84Z" transform="translate(-181 -426.76)"/><path class="cls-1" d="M653.43,481.49c-15.92,0-28.61,12.06-28.61,27.77S637.51,537,653.43,537,682,525,682,509.26s-12.8-27.77-28.6-27.77Zm0,44.2h0a16.44,16.44,0,1,1,16.22-16.43A16,16,0,0,1,653.43,525.69Z" transform="translate(-181 -426.76)"/><polygon class="cls-1" points="508.7 69.22 508.7 108.7 521.19 108.7 521.19 69.72 521.19 36.21 508.7 36.21 508.7 69.22"/><path class="cls-1" d="M747.2,513.52c0,8.32-4.88,11.86-11.44,11.86s-11.44-3.55-11.44-11.75V483.05H711.73v31.62c0,15,10.93,22.15,23.93,22.15s24.12-7.27,24.12-22.46V483.05H747.2v30.47Z" transform="translate(-181 -426.76)"/><polygon class="cls-1" points="626.01 91.94 618.14 80.93 627.89 67.66 636.23 56.29 622.61 56.29 611.27 71.99 599.83 56.29 586.31 56.29 594.06 66.89 604.41 81.04 593.57 96.14 584.54 108.7 597.96 108.7 611.27 90.19 624.58 108.7 638 108.7 626.01 91.94"/></svg>