<svg width="801" height="404" viewBox="0 0 801 404" fill="none" xmlns="http://www.w3.org/2000/svg">
<path d="M800.5 348.217H749.277V399.439H800.5V348.217Z" fill="#D66B2C"/>
<path d="M645.794 120.975L676.201 349.235L706.561 120.975H753.934L709.621 399.438H642.253L598.404 120.975H645.794Z" fill="#D66B2C"/>
<path d="M26.8499 120.678H0.5V157.717H26.8499V399.439H73.1831V157.717H105.739V120.678H73.1831V64.0054C73.1831 55.7443 74.9034 49.4241 78.9065 45.0931C82.9096 40.762 89.067 38.7569 97.3787 38.7569H105.723V0.835938H88.9706C68.3762 0.835938 48.5374 5.18306 39.1325 14.1339C29.7276 23.0848 26.882 36.9442 26.882 56.7228L26.8499 120.678Z" fill="#D66B2C"/>
<path d="M166.275 120.975H119.709V399.438H166.275V120.975Z" fill="#D66B2C"/>
<path d="M379.593 181.303C379.593 165.607 383.692 149.35 405.407 149.35C427.122 149.35 431.51 165.366 431.51 181.287V238.802H379.593V181.303ZM379.593 276.329H476.403V190.544C476.274 139.291 451.522 118.182 404.636 118.182C355.837 118.182 332.98 139.179 332.98 190.865V331.81C333.109 378.851 361.704 403.164 404.603 403.164C447.503 403.164 476.274 383.144 476.403 331.81V309.563H431.542V335.991C431.542 354.826 424.454 367.848 405.455 367.848C386.457 367.848 379.529 354.698 379.529 335.959L379.593 276.329Z" fill="#D66B2C"/>
<path d="M269.88 241.417C234.804 210.993 232.067 206.541 232.067 183.771C232.067 164.411 233.747 152.625 251.126 152.625C268.504 152.625 270.744 164.267 270.744 183.979V209.6H315.294V167.822C315.166 134.915 289.85 118.182 250.101 118.182C211.009 118.182 185.501 131.216 185.277 183.835C185.277 192.77 185.277 192.77 185.277 189.311C185.277 205.853 185.437 232.066 226.29 267.166L238.004 277.206C268.12 302.603 271.416 305.677 271.272 335.894C271.272 354.533 270.12 368.64 250.581 368.64C231.043 368.64 229.779 354.421 229.779 345.63V310.033H183.037V346.767C183.037 391.987 212.433 403.164 250.517 403.164C288.602 403.164 318.078 391.955 318.078 333.7V328.896C317.982 288.271 310.637 277.366 269.88 241.449" fill="#D66B2C"/>
<path d="M538.116 149.993V121.366H495.959V399.439H541.447V205.646C541.447 190.668 546.25 180.795 554.816 174.971C562.822 169.418 572.765 167.546 585.365 167.37V118.182C561.236 118.662 550.829 123.43 538.581 148.968L538.116 149.993Z" fill="#D66B2C"/>
</svg>
