<svg width="450" height="142" viewBox="0 0 450 142" fill="none" xmlns="http://www.w3.org/2000/svg">
<path fill-rule="evenodd" clip-rule="evenodd" d="M146.891 0.275391H0V141.725H146.891V0.275391ZM7.45508 89.6957V102.088L44.8291 102.089V89.6967H38.4361V77.3487H49.2871V65.2237H38.4361V52.6537H52.7461V59.5247H68.4971V40.3047H7.45508V52.6527H12.4541V89.6957H7.45508ZM107.166 89.6957H100.396L100.397 76.6067H108.183L121.624 102.089H146.114V89.6967H142.229L132.099 72.8677C135.394 71.2787 137.852 69.2747 139.458 66.8707C141.082 64.4667 141.885 61.5877 141.885 58.2627C141.885 51.8517 139.295 47.2657 134.115 44.4757C128.918 41.6997 120.281 40.3047 108.183 40.3047H71.2031V52.6527H76.3831V89.6957H71.2031V102.088H107.166V89.6957ZM100.396 65.7417V52.6527C100.692 52.6527 101.068 52.6377 101.577 52.6067C102.069 52.5777 102.43 52.5627 102.658 52.5627C106.559 52.5627 109.461 53.1117 111.379 54.2097C113.297 55.3227 114.264 56.9707 114.264 59.1817C114.264 61.4377 113.314 63.0997 111.412 64.1537C109.51 65.2077 106.527 65.7417 102.462 65.7417H100.396Z" fill="#EC1C24"/>
<path fill-rule="evenodd" clip-rule="evenodd" d="M299.223 0.275391H152.332V141.725H299.223V0.275391ZM190.923 73.3117H179.293L185.583 55.6957L190.923 73.3117ZM177.921 89.6967H173.566L176.695 80.5247H193.052L195.746 89.6967H190.827V102.089H223.913V89.6967H220.218L207.184 52.5637H212.281V40.3047H166.145V52.5637H171.162L158.015 89.6967H154.434V102.089H177.921V89.6967ZM244.318 89.6967V63.6947L268.047 102.09H291.195V52.5647H296.116V40.3057H270.789V52.5647H276.645V76.2657L254.722 40.3057H224.976V52.6537H229.896V89.6967H224.976V102.089H250.318V89.6967H244.318Z" fill="#EC1C24"/>
<path fill-rule="evenodd" clip-rule="evenodd" d="M450 0.275391H303.109V141.725H450V0.275391ZM383.504 89.6957H382.036L361.145 65.2977L373.534 52.5637H377.502V40.3047H347.579V52.5637H354.064L336.852 70.2247L352.935 89.6957H348.338V102.088H383.504V89.6957ZM305.09 89.6957V102.088H340.498V89.6957H335.577V52.6527H340.498V40.3047H305.09V52.6527H310.009V89.6957H305.09ZM383.971 89.6957V102.088L444.044 102.089V81.8757H428.542V89.6967H414.46V77.3487H426.51V65.2237H414.46V52.6537H428.542V59.5247H444.044V40.3047H383.971V52.6527H388.892V89.6957H383.971Z" fill="#EC1C24"/>
</svg>
