<svg width="380" height="310" viewBox="0 0 380 310" fill="none" xmlns="http://www.w3.org/2000/svg">
<path fill-rule="evenodd" clip-rule="evenodd" d="M70.7381 310C109.806 310 141.476 278.329 141.476 239.262C141.476 200.194 109.806 168.523 70.7381 168.523C31.6705 168.523 0 200.194 0 239.262C0 278.329 31.6705 310 70.7381 310ZM71.0965 297.368C102.988 297.368 128.842 271.515 128.842 239.623C128.842 207.731 102.988 181.877 71.0965 181.877C39.2046 181.877 13.3511 207.731 13.3511 239.623C13.3511 271.515 39.2046 297.368 71.0965 297.368Z" fill="white"/>
<path fill-rule="evenodd" clip-rule="evenodd" d="M308.574 310C347.642 310 379.312 278.329 379.312 239.262C379.312 200.194 347.642 168.523 308.574 168.523C269.506 168.523 237.836 200.194 237.836 239.262C237.836 278.329 269.506 310 308.574 310ZM308.932 297.368C340.824 297.368 366.678 271.515 366.678 239.623C366.678 207.731 340.824 181.877 308.932 181.877C277.041 181.877 251.187 207.731 251.187 239.623C251.187 271.515 277.041 297.368 308.932 297.368Z" fill="white"/>
<path fill-rule="evenodd" clip-rule="evenodd" d="M168.54 223.638C168.54 227.082 173.129 228.258 174.786 225.239L204.953 170.251C205.537 169.186 206.656 168.524 207.871 168.524H215.098C217.628 168.524 219.233 171.235 218.016 173.453L190.778 223.101C190.254 224.057 190.231 225.21 190.718 226.187L230.106 305.187C231.209 307.399 229.6 310 227.127 310H220.047C218.785 310 217.632 309.286 217.068 308.157L185.172 244.183C183.974 241.779 180.568 241.712 179.276 244.067L168.95 262.889C168.681 263.38 168.54 263.93 168.54 264.49V306.671C168.54 308.51 167.049 310 165.211 310H158.875C157.037 310 155.547 308.51 155.547 306.671V171.852C155.547 170.014 157.037 168.523 158.875 168.523H165.211C167.049 168.523 168.54 170.014 168.54 171.852V223.638Z" fill="white"/>
<path fill-rule="evenodd" clip-rule="evenodd" d="M96 3.32826C96 1.49011 97.4901 0 99.3283 0H105.664C107.503 0 108.993 1.49012 108.993 3.32826V60.9122C108.993 62.7504 110.483 64.2405 112.321 64.2405H131.291C133.129 64.2405 134.619 62.7504 134.619 60.9122V3.32826C134.619 1.49011 136.109 0 137.947 0H144.284C146.122 0 147.612 1.49012 147.612 3.32826V138.148C147.612 139.986 146.122 141.476 144.284 141.476H137.947C136.109 141.476 134.619 139.986 134.619 138.148V80.5614C134.619 78.7233 133.129 77.2332 131.291 77.2332H112.321C110.483 77.2332 108.993 78.7233 108.993 80.5614V138.148C108.993 139.986 107.503 141.476 105.664 141.476H99.3283C97.4901 141.476 96 139.986 96 138.148V3.32826Z" fill="white"/>
<path fill-rule="evenodd" clip-rule="evenodd" d="M170.707 0.000422806C170.707 0.000189296 170.707 0 170.707 0V0H183.7H206.357C208.195 0 209.685 1.49011 209.685 3.32826V9.66446C209.685 11.5026 208.195 12.9927 206.357 12.9927L187.028 12.9927C185.19 12.9927 183.7 14.4828 183.7 16.321V60.9122C183.7 62.7504 185.19 64.2405 187.028 64.2405H206.357C208.195 64.2405 209.685 65.7306 209.685 67.5687V73.9049C209.685 75.7431 208.195 77.2332 206.357 77.2332H187.028C185.19 77.2332 183.7 78.7233 183.7 80.5614V125.155C183.7 126.993 185.19 128.484 187.028 128.484H206.357C208.195 128.484 209.685 129.974 209.685 131.812V138.148C209.685 139.986 208.195 141.476 206.357 141.476H174.035C172.197 141.476 170.707 139.986 170.707 138.148V128.484C170.707 128.484 170.707 128.484 170.707 128.484V128.484C170.707 128.484 170.707 128.483 170.707 128.483V77.2334C170.707 77.2333 170.707 77.2332 170.707 77.2332V77.2332C170.707 77.2332 170.707 77.2331 170.707 77.233V64.2407C170.707 64.2406 170.707 64.2405 170.707 64.2405V64.2405C170.707 64.2405 170.707 64.2404 170.707 64.2403V12.9929C170.707 12.9928 170.707 12.9927 170.707 12.9927V12.9927C170.707 12.9927 170.707 12.9926 170.707 12.9925V0.000422806Z" fill="white"/>
<path fill-rule="evenodd" clip-rule="evenodd" d="M236.479 0C234.28 0 232.686 2.09349 233.27 4.21279L251.537 70.4743C251.616 70.7625 251.656 71.06 251.656 71.3589V138.146C251.656 139.984 253.146 141.475 254.985 141.475H261.244C263.082 141.475 264.572 139.984 264.572 138.146V72.1953C264.572 71.8964 264.612 71.5989 264.691 71.3108L283.189 4.21278C283.773 2.09349 282.178 0 279.98 0H273.482C271.985 0 270.671 1.00009 270.273 2.44374L261.438 34.4944C260.54 37.7527 255.919 37.7527 255.021 34.4944L246.185 2.44374C245.787 1.0001 244.474 0 242.977 0H236.479Z" fill="white"/>
</svg>
