<svg width="900" height="180" viewBox="0 0 900 180" fill="none" xmlns="http://www.w3.org/2000/svg">
<g clip-path="url(#clip0_2101_324)">
<path d="M186.299 64.3496C189.449 64.3496 192.599 65.6996 192.599 67.9496V172.349C192.599 174.599 189.449 175.949 186.299 175.949V178.199H216.449V175.949C213.299 175.949 210.149 174.599 210.149 172.349V67.9496C210.149 65.6996 213.299 64.3496 216.449 64.3496V62.0996H186.299V64.3496ZM570.599 116.099C570.599 108.899 578.699 104.849 587.249 104.849C600.749 104.849 608.849 107.099 611.099 116.549H613.799L613.349 104.399C605.249 101.249 595.799 99.4494 589.049 99.4494C565.649 99.4494 556.199 111.599 556.199 121.049C556.199 148.049 602.549 141.749 602.549 161.549C602.549 167.399 598.049 173.249 585.449 173.249C570.149 173.249 562.049 168.299 558.449 157.949L556.199 158.399L557.099 172.799C564.299 175.949 574.649 178.649 583.199 178.649C608.399 178.649 619.649 166.949 619.649 155.699C619.649 129.599 570.599 135.899 570.599 116.099ZM415.799 103.499C420.749 103.499 423.899 106.199 422.099 110.249L399.149 154.799L376.199 109.799C375.299 106.199 378.449 103.949 382.499 103.949V101.699H345.599V103.949C350.099 103.949 353.249 105.749 356.849 111.599L394.199 179.549L432.899 110.249C436.049 104.849 440.099 103.949 442.799 103.949V101.699H416.249V103.499H415.799ZM330.299 172.349V121.499C330.299 107.099 314.999 98.9994 298.799 98.9994C285.299 98.9994 273.149 106.649 268.199 110.699V99.8994C268.199 98.5494 267.299 98.0994 266.849 98.0994C256.949 101.699 252.449 103.499 242.549 106.649V108.449C247.949 108.899 249.299 111.599 249.749 115.649V172.349C249.749 175.049 246.599 175.949 243.449 175.949V178.199H274.499V175.949C271.349 175.949 268.199 174.599 268.199 172.349V116.999C272.249 112.949 280.799 108.449 289.799 108.449C308.249 108.449 312.299 118.349 312.299 127.349V172.349C312.299 174.599 309.149 175.499 305.999 175.499V177.749H336.149V175.949C333.449 175.949 330.299 175.049 330.299 172.349ZM535.499 133.199C535.499 108.899 513.449 99.4494 495.449 99.4494C463.049 99.4494 447.299 121.049 447.299 138.599C447.299 144.899 449.099 152.549 452.699 158.399C456.749 165.149 462.149 170.099 469.349 173.699C476.549 177.299 484.649 179.099 493.649 179.099C501.749 179.099 508.949 178.199 515.249 175.949C521.549 173.699 527.399 170.099 533.699 165.149V159.299C527.399 163.799 521.549 166.499 516.599 168.299C511.649 169.649 506.249 170.549 499.949 170.549C490.949 170.549 482.849 167.849 476.099 161.549C469.349 155.249 466.649 145.349 466.199 138.149V133.649H535.499V133.199ZM493.199 104.849C504.899 104.849 516.149 110.699 516.149 126.899H467.999C469.349 115.649 477.899 104.849 493.199 104.849ZM800.999 133.199C800.999 108.899 778.949 99.4494 760.949 99.4494C728.549 99.4494 712.799 121.049 712.799 138.599C712.799 144.899 714.599 152.549 718.199 158.399C722.249 165.149 727.649 170.099 734.849 173.699C742.049 177.299 750.149 179.099 759.149 179.099C767.249 179.099 774.449 178.199 780.749 175.949C787.049 173.699 792.899 170.099 799.199 165.149V159.299C792.899 163.799 787.049 166.499 782.099 168.299C777.149 169.649 771.749 170.549 765.449 170.549C756.449 170.549 748.349 167.849 741.599 161.549C734.849 155.249 732.149 145.349 731.699 138.149V133.649H800.999V133.199ZM758.699 104.849C770.399 104.849 781.649 110.699 781.649 126.899H733.499C734.849 115.649 743.399 104.849 758.699 104.849ZM687.149 172.349C680.849 172.799 667.799 170.549 667.799 155.699V108.899H697.499V102.149H668.249V87.2995H649.799V102.599H638.099V109.349H649.799V155.699C649.799 171.449 662.399 179.099 679.049 179.099C684.899 179.099 691.199 176.849 694.799 174.599C696.599 173.699 698.399 172.349 700.649 170.549L700.199 167.849C697.949 169.199 692.099 171.899 687.149 172.349ZM866.249 104.849C879.299 104.849 891.449 112.049 895.949 120.599H899.999V106.199C899.999 106.199 885.599 98.5494 867.149 98.5494C831.149 98.5494 816.749 122.399 816.749 139.049C816.749 142.199 817.199 145.799 818.099 149.399C818.549 150.299 818.549 151.199 818.999 152.099C820.349 156.149 822.599 160.199 825.749 163.799C828.899 167.849 832.949 170.999 837.899 173.699C843.749 176.849 850.049 178.649 856.799 179.099C859.049 179.549 861.299 179.549 863.999 179.549C871.199 179.549 877.049 178.199 881.999 176.399C887.849 174.149 893.699 170.999 899.549 165.599V159.299C894.599 162.899 889.649 165.599 885.599 166.949C881.099 168.749 875.699 169.649 869.399 169.649C846.899 169.649 836.099 153.899 836.099 137.249C836.099 121.949 845.099 104.849 866.249 104.849Z" fill="#0B1742"/>
<path d="M73.35 62.0989V0.449219H67.95V13.9492C41.4 14.8491 19.35 31.9491 13.95 53.999H28.35C33.3 35.999 49.05 22.4991 67.95 21.5991V62.5489H0V67.9489H12.15C13.95 94.0488 37.8 115.199 67.5 116.549V129.599H72.9V67.9489H113.85C112.5 87.2988 99 103.049 80.55 107.549V115.649C106.65 111.599 126.45 91.7988 128.25 67.9489H140.4V62.0989H73.35ZM67.95 108.449C45.9 107.099 28.35 89.5488 27 67.4989H67.95V108.449ZM112.95 53.999H127.35C122.4 33.7491 104.4 18.4491 81.45 14.3992V22.4991C96.75 26.5491 108.9 38.699 112.95 53.999Z" fill="#5E9AD3"/>
</g>
<defs>
<clipPath id="clip0_2101_324">
<rect width="900" height="180" fill="white"/>
</clipPath>
</defs>
</svg>
