<svg width="709" height="273" viewBox="0 0 709 273" fill="none" xmlns="http://www.w3.org/2000/svg">
<path d="M654.762 242.491C645.891 237.859 644.512 224.77 644.709 192.934L644.906 144.146L627.953 144.126L631.896 135.098H644.906V111.995L676.051 100.443V134.329L690.442 134.349L686.696 144.363L676.051 144.343V228.771C676.643 235.572 679.008 239.574 682.162 242.491H654.762Z" fill="#C6003D"/>
<path d="M347.838 33.8753C350.204 40.4001 355.723 47.1418 351.781 54.7114C350.007 62.3993 342.713 68.6284 335.025 69.8703C326.943 70.5996 319.453 69.2395 313.342 64.3705C309.202 42.1743 318.27 21.634 335.814 9.39258L347.838 33.8753Z" fill="#C6003D"/>
<path d="M378.786 101.509C374.844 114.933 335.222 106.122 322.803 84.0834C339.164 85.8969 357.497 71.4279 357.891 54.9286L378.786 101.509Z" fill="#C6003D"/>
<path d="M395.147 99.7734C396.922 98.9652 400.47 97.1518 401.455 93.2685L358.876 0.659395C355.919 0.304571 353.948 0.0482796 350.203 2.63061L395.147 99.7734Z" fill="#C6003D"/>
<path d="M414.269 79.667C432.404 52.1681 417.226 7.04641 377.998 0.71875L414.269 79.667Z" fill="#C6003D"/>
<path d="M410.328 138.864C416.045 134.054 426.098 133.955 432.603 137.03C435.363 138.41 437.925 140.243 439.699 142.648L427.083 162.203C425.506 160.941 424.324 160.37 422.353 159.345C416.045 156.644 409.539 158.221 405.794 161.631V218.699C405.597 228.575 407.371 237.583 412.496 242.255H383.913C377.802 237.682 376.423 230.369 375.831 223.962L375.634 148.069C375.831 141.919 374.254 139.218 371.889 135.769L401.457 135.887C403.823 137.602 404.02 140.579 405.203 142.865L410.328 138.864Z" fill="#C6003D"/>
<path d="M446.4 157.629C446.203 150.414 447.78 141.78 443.049 135.551H470.449C472.42 136.931 473.406 139.217 473.997 141.386C475.574 143.318 475.377 146.077 475.969 148.364L476.363 229.224C477.348 234.034 479.32 238.883 482.868 242.668L453.496 242.727C443.837 233.423 446.991 218.126 446.203 202.336L446.4 157.629Z" fill="#C6003D"/>
<path d="M489.966 158.417C492.923 150.197 502.188 146.077 508.89 141.603C519.141 137.838 530.574 128.454 542.007 136.123C551.666 142.411 560.142 149.507 566.253 159.225C567.633 162.991 568.422 167.229 569.407 171.23C569.407 176.612 570.59 180.614 570.393 185.995C570.787 191.83 570.787 197.093 570.393 202.81C569.999 212.528 565.465 221.221 557.777 227.963C546.344 238.154 531.954 249.706 516.381 241.801C502.385 235.276 486.024 222.364 487.009 204.623C486.418 192.047 485.827 181.185 487.601 168.944C488.192 165.395 487.995 161.512 489.966 158.417ZM518.549 215.603C519.929 220.649 522.492 226.819 528.603 227.509C532.151 227.628 534.713 224.651 536.882 222.128C543.19 209.551 542.204 195.831 542.204 181.52C540.233 170.895 542.796 156.367 531.362 149.842C527.223 148.364 524.266 151.104 521.703 153.627C517.169 160.369 516.775 168.096 516.381 176.671C515.001 190.391 516.578 201.765 518.549 215.603Z" fill="#C6003D"/>
<path d="M590.696 242.491C581.825 237.859 580.445 224.77 580.642 192.934L580.839 144.146L564.084 144.126L567.829 135.098H580.839V111.995L612.182 100.443V134.329L626.375 134.349L622.63 144.363L612.182 144.343V228.771C612.774 235.572 615.139 239.574 618.293 242.491H590.696Z" fill="#C6003D"/>
<path d="M305.259 148.069C305.062 141.919 303.879 139.218 301.514 135.769L331.082 135.887C333.448 137.602 333.645 140.579 334.828 142.865L339.953 138.864C345.669 134.054 355.723 133.955 362.228 137.03C364.988 138.41 367.55 140.243 369.324 142.648L356.708 162.203C355.131 160.941 353.949 160.37 351.977 159.345C345.669 156.644 339.164 158.221 335.419 161.631V218.699C335.222 228.575 336.996 237.583 342.121 242.255H313.538C307.624 237.682 305.85 230.881 305.456 223.962L305.259 148.069Z" fill="#C6003D"/>
<path d="M81.1296 178.092L70.4848 200.249C62.9941 213.318 52.7436 229.344 36.9737 233.326C30.8629 235.455 25.3434 233.523 19.4297 233.109L0.308594 264.354C1.88558 265.891 3.85688 267.172 5.82809 267.921C39.3392 280.734 52.9408 266.956 85.8605 192.226L117.203 258.795H158.796L139.084 213.87L150.32 190.649L181.072 257.77L220.891 258.026L151.109 104.9L118.977 120.847L144.209 177.993L133.17 200.446L87.0433 100.938L53.335 118.166L81.1296 178.092Z" fill="#C6003D"/>
<path d="M209.064 205.098C209.852 194 215.963 183.592 226.213 177.993C236.464 171.685 248.291 169.182 258.936 163.682C260.71 162.204 262.878 160.37 263.076 157.966C263.273 154.989 261.696 152.702 259.133 151.677C242.969 148.247 229.761 158.301 218.131 168.255C219.511 160.942 220.694 152.939 224.242 146.079C225.819 144.246 227.002 141.723 229.17 140.362C240.603 134.744 254.796 133.148 267.412 134.054C277.86 134.744 287.519 142.176 291.067 151.677C292.841 156.132 292.644 161.179 293.038 165.752L293.236 227.747C293.236 233.109 295.798 238.156 298.952 242.492H269.383C265.835 239.299 264.061 235.278 263.076 230.251C254.796 237.584 237.449 248.446 227.199 241.231C216.554 236.441 206.698 220.296 209.064 205.098ZM261.499 183.533C261.301 179.235 258.345 178.782 256.176 178.782C249.08 179.807 242.969 185.74 239.421 191.831C236.464 197.252 235.675 201.826 235.478 206.576C235.478 211.702 235.084 215.506 237.252 219.389C238.435 221.913 240.8 223.056 243.363 223.726C247.897 224.653 252.037 223.391 255.585 220.986C264.061 216.295 262.484 206.911 262.681 198.573L261.499 183.533Z" fill="#C6003D"/>
<path d="M685.906 233.207C685.906 226.859 691.031 222.188 697.142 222.188C703.253 222.188 708.378 226.859 708.378 233.207C708.378 239.594 703.253 244.265 697.142 244.265C691.031 244.265 685.906 239.594 685.906 233.207ZM697.142 242.432C702.268 242.432 706.21 238.529 706.21 233.207C706.21 227.983 702.268 224.021 697.142 224.021C692.214 224.021 688.075 227.983 688.075 233.207C688.075 238.529 692.214 242.432 697.142 242.432ZM694.777 239.594H693.003V226.859H697.734C700.691 226.859 702.268 227.983 702.268 230.486C702.268 232.773 700.888 233.759 698.916 233.995L702.662 239.594H700.493L697.142 234.074H694.777V239.594ZM697.142 232.438C698.719 232.438 700.296 232.32 700.296 230.368C700.296 228.791 698.916 228.495 697.537 228.495H694.777V232.438H697.142Z" fill="#C6003D"/>
</svg>
