<svg width="83" height="116" viewBox="0 0 83 116" fill="none" xmlns="http://www.w3.org/2000/svg">
<path fill-rule="evenodd" clip-rule="evenodd" d="M30.2539 106.034C30.2539 104.588 30.2539 103.143 30.2539 101.697C34.0043 101.697 37.7156 101.697 41.4269 101.697C45.1383 101.697 48.8496 101.697 52.5609 101.697C52.5609 103.143 52.5609 104.588 52.5609 106.034C48.8496 106.034 45.1383 106.034 41.4269 106.034C37.7156 106.034 34.0043 106.034 30.2539 106.034Z" fill="black"/>
<path fill-rule="evenodd" clip-rule="evenodd" d="M41.4265 115.059C43.7705 115.059 46.1145 115.059 48.4585 115.059C48.4585 112.793 48.4585 110.567 48.4585 108.301C46.1145 108.301 43.7705 108.301 41.4265 108.301C39.0825 108.301 36.7385 108.301 34.3945 108.301C34.3945 110.567 34.3945 112.793 34.3945 115.059C36.7385 115.059 39.0825 115.059 41.4265 115.059Z" fill="black"/>
<path fill-rule="evenodd" clip-rule="evenodd" d="M34.3949 99.4327C34.3559 95.7213 33.4183 92.0491 30.4102 89.5879C34.0824 89.5879 37.7547 89.5879 41.4269 89.5879C45.0992 89.5879 48.7714 89.5879 52.4437 89.5879C49.4356 92.0491 48.4589 95.7213 48.4589 99.4327C46.1149 99.4327 43.7709 99.4327 41.4269 99.4327C39.0829 99.4327 36.7389 99.4327 34.3949 99.4327Z" fill="black"/>
<path fill-rule="evenodd" clip-rule="evenodd" d="M15.7598 82.3988C15.7598 81.344 15.7598 80.2501 15.7598 79.1953C24.3153 79.1953 32.8709 79.1953 41.4265 79.1953C49.9821 79.1953 58.5376 79.1953 67.0541 79.1953C67.0541 80.2501 67.0541 81.344 67.0541 82.3988C58.5376 82.3988 49.9821 82.3988 41.4265 82.3988C32.8709 82.3988 24.3153 82.3988 15.7598 82.3988Z" fill="black"/>
<path fill-rule="evenodd" clip-rule="evenodd" d="M18.0645 94.0024C21.0726 93.3383 24.2761 91.6584 26.4248 89.5879C23.4557 89.5879 20.4866 89.5879 17.5176 89.5879C17.7129 91.0334 17.8692 92.5179 18.0645 94.0024Z" fill="black"/>
<path fill-rule="evenodd" clip-rule="evenodd" d="M64.788 94.0024C61.7799 93.3383 58.5373 91.6584 56.3887 89.5879C59.3968 89.5879 62.3659 89.5879 65.3349 89.5879C65.1396 91.0334 64.9442 92.5179 64.788 94.0024Z" fill="black"/>
<path fill-rule="evenodd" clip-rule="evenodd" d="M14.9019 72.1238C12.0891 55.4815 6.65882 38.1359 0.681641 26.7285C7.12762 30.2054 14.0033 35.7529 21.3869 43.2927C18.3007 42.4723 15.2535 41.8473 12.2063 41.3785C16.4645 51.4576 19.9805 61.7321 23.184 72.1238C20.4102 72.1238 17.6756 72.1238 14.9019 72.1238Z" fill="black"/>
<path fill-rule="evenodd" clip-rule="evenodd" d="M67.954 72.1238C70.7277 55.4815 76.158 38.1359 82.1351 26.7285C75.7282 30.2054 68.8525 35.7529 61.4689 43.2927C64.5161 42.4723 67.6024 41.8473 70.6496 41.3785C66.3913 51.4576 62.8753 61.7321 59.6719 72.1238C62.4065 72.1238 65.1803 72.1238 67.954 72.1238Z" fill="black"/>
<path fill-rule="evenodd" clip-rule="evenodd" d="M13.0645 77.516C13.0645 76.4221 13.0645 75.3282 13.0645 74.2734C22.5186 74.2734 31.9727 74.2734 41.4268 74.2734C50.8809 74.2734 60.335 74.2734 69.7891 74.2734C69.7891 75.3282 69.7891 76.4221 69.7891 77.516C60.335 77.516 50.8809 77.516 41.4268 77.516C31.9727 77.516 22.5186 77.516 13.0645 77.516Z" fill="black"/>
<path fill-rule="evenodd" clip-rule="evenodd" d="M31.8559 24.9713C36.2313 17.4315 39.9817 8.87592 41.4272 0.0078125C42.8336 8.87592 46.584 17.4315 50.9985 24.9713C49.4358 24.2681 47.756 23.5259 45.9198 22.7445C44.3572 22.0023 43.693 22.432 43.7321 24.0728C44.279 40.0901 46.623 58.2951 54.9833 72.1247C51.7017 72.1247 48.4201 72.1247 45.1385 72.1247C43.5758 68.4524 42.3648 64.8192 41.4272 61.2251C40.4896 64.8192 39.2395 68.4524 37.7159 72.1247C34.4343 72.1247 31.1527 72.1247 27.8711 72.1247C36.2313 58.2951 38.5753 40.0901 39.1223 24.0728C39.1613 22.432 38.4972 22.0023 36.8955 22.7445C35.0593 23.5259 33.4185 24.2681 31.8559 24.9713Z" fill="black"/>
<path fill-rule="evenodd" clip-rule="evenodd" d="M13.0645 87.3206C13.0645 86.2268 13.0645 85.172 13.0645 84.0781C22.5186 84.0781 31.9727 84.0781 41.4268 84.0781C50.8809 84.0781 60.335 84.0781 69.7891 84.0781C69.7891 85.172 69.7891 86.2268 69.7891 87.3206C60.335 87.3206 50.8809 87.3206 41.4268 87.3206C31.9727 87.3206 22.5186 87.3206 13.0645 87.3206Z" fill="black"/>
</svg>
