<svg width="162" height="26" viewBox="0 0 162 26" fill="none" xmlns="http://www.w3.org/2000/svg">
<path d="M0.863047 7.44435C0.863047 11.8443 3.80105 13.4873 8.21405 14.5923C12.414 15.5923 13.277 16.9053 13.277 18.5603C13.277 20.3943 11.633 21.6753 9.27705 21.6753C6.64284 21.6394 4.12737 20.5737 2.26905 18.7063C2.19205 18.7993 0.0690469 21.4153 -0.00195312 21.5063C2.48444 23.8436 5.76956 25.1432 9.18205 25.1393C13.892 25.1393 17.056 22.3393 17.056 18.1643C17.056 14.5103 14.868 12.3293 9.95605 11.0913C5.50805 9.99135 4.63805 8.79135 4.63805 7.08335C4.63805 5.59735 5.90305 4.09435 8.32005 4.09435C10.5321 4.17753 12.6516 5.00404 14.336 6.44035L16.362 3.47935C14.1358 1.59796 11.3034 0.58659 8.38905 0.632347C4.02805 0.632347 0.863047 3.49935 0.863047 7.44435Z" fill="#FF5F00"/>
<path d="M29.6245 7.48828L25.8605 19.6293C25.8605 19.6293 22.4765 7.64428 22.4515 7.55328H18.6465L24.0375 24.9423H27.3735C27.3995 24.8563 31.1995 12.9133 31.1995 12.9133C31.1995 12.9133 34.9635 24.8553 34.9915 24.9423H38.3285C38.3555 24.8553 43.7285 7.71428 43.7815 7.55328H40.0705L36.5995 19.6263L32.7995 7.48828H29.6245Z" fill="#FF5F00"/>
<path d="M45.5996 16.1814V16.2474C45.5996 21.4364 49.1916 25.2034 54.1406 25.2034C56.3684 25.274 58.5622 24.6445 60.4136 23.4034C60.3836 23.3134 59.4396 20.5034 59.3936 20.3684C57.8795 21.4422 56.0548 21.9896 54.1996 21.9264C52.9827 21.984 51.7912 21.5647 50.8786 20.7576C49.966 19.9505 49.4042 18.8193 49.3126 17.6044L49.3016 17.5334H61.6366V17.5094L61.6936 16.4774C61.6936 11.8544 59.2286 7.19141 53.7236 7.19141C49.0916 7.19141 45.5996 11.0554 45.5996 16.1814ZM49.2856 14.9564C49.6486 12.1414 51.3806 10.3244 53.6966 10.3244C56.0756 10.3244 57.7306 12.0994 58.0136 14.9574L58.0196 15.0264H49.2736L49.2856 14.9564Z" fill="#FF5F00"/>
<path d="M78.1353 0.632812V9.02581L78.0353 8.94581C76.6018 7.75106 74.7782 7.12659 72.9133 7.19181C69.0793 7.19181 65.1973 10.2678 65.1973 16.1488V16.2128C65.1973 22.0938 69.2893 25.1718 73.3303 25.1718C76.1859 25.108 79.0338 24.8463 81.8533 24.3888V0.632812H78.1353ZM68.9443 16.2128V16.1488C68.9443 12.8888 71.0013 10.5218 73.8343 10.5218C76.4603 10.5218 78.2003 12.2758 78.2003 12.9868V21.5428L78.1493 21.5528C76.7217 21.7709 75.2782 21.8673 73.8343 21.8408C71.0463 21.8408 68.9443 19.4218 68.9443 16.2128Z" fill="#FF5F00"/>
<path d="M86.7988 0.632812V24.3888C89.6183 24.8463 92.4662 25.1079 95.3218 25.1718C99.3638 25.1718 103.456 22.0938 103.456 16.2128V16.1488C103.456 10.2678 99.5728 7.19181 95.7388 7.19181C93.8739 7.12678 92.0504 7.75123 90.6168 8.94581L90.5168 9.02581V0.632812H86.7988ZM90.4988 21.5528L90.4488 21.5428V12.9868C90.4488 12.2758 92.1878 10.5218 94.8128 10.5218C97.6458 10.5218 99.7028 12.8888 99.7028 16.1488V16.2128C99.7028 19.4218 97.6028 21.8408 94.8128 21.8408C93.3719 21.8668 91.9314 21.7705 90.5068 21.5528H90.4988Z" fill="#FF5F00"/>
<path d="M108.028 8.70841C108.061 8.80841 108.998 11.6664 109.038 11.7854C110.526 11.0884 112.149 10.725 113.793 10.7204C116.493 10.7204 117.983 12.0634 117.983 14.5024V14.9184L117.9 14.8904C116.414 14.3852 114.853 14.1416 113.284 14.1704C109.068 14.1704 106.551 16.2754 106.551 19.8034V19.8694C106.551 23.5114 109.613 25.1694 112.458 25.1694C115.531 25.1186 118.597 24.8566 121.635 24.3854V14.5654C121.635 9.80541 119.11 7.28841 114.335 7.28841C112.15 7.25849 109.989 7.74503 108.028 8.70841ZM110.238 19.6704V19.6044C110.238 17.8744 111.698 16.8424 114.138 16.8424C115.458 16.8381 116.768 17.0753 118.003 17.5424L118.042 17.5574V21.9784L117.991 21.9874C116.517 22.2198 115.027 22.3265 113.536 22.3064C111.565 22.2994 110.238 21.2444 110.238 19.6704Z" fill="#FF5F00"/>
<path d="M126.33 7.97345V24.8095H130.047V10.8095L130.098 10.8005C131.353 10.6116 132.62 10.5204 133.889 10.5275C136.174 10.5275 137.538 12.1985 137.538 14.9975V24.8095H141.255V13.8095C141.255 9.72545 138.992 7.18945 135.349 7.18945C132.328 7.23361 129.314 7.49562 126.33 7.97345Z" fill="#FF5F00"/>
<path d="M146.018 0.632812V24.8098H149.734V19.8768L152.153 17.2668C152.153 17.2668 157.189 24.7548 157.227 24.8098H161.521C161.394 24.6188 154.669 14.5608 154.669 14.5608L161.269 7.55281H156.769C156.731 7.59381 149.726 15.3528 149.726 15.3528V0.632812H146.018Z" fill="#FF5F00"/>
</svg>
