<svg width="750" height="243" viewBox="0 0 750 243" fill="none" xmlns="http://www.w3.org/2000/svg">
<path d="M371.35 5.22502L321.275 239.4H260.675L310.825 5.22502H371.35ZM626.275 156.425L658.15 68.475L676.525 156.425H626.275ZM693.85 239.4H749.9L701 5.22502H649.275C649.2 5.22502 649.1 5.22502 649.025 5.22502C637.55 5.22502 627.7 12.25 623.55 22.225L623.475 22.4L532.6 239.4H596.2L608.85 204.4H686.575L693.85 239.4ZM535.725 162.95C535.975 101.125 450.25 97.725 450.85 70.1C451.05 61.7 459.025 52.75 476.525 50.475C479.775 50.15 483.525 49.95 487.325 49.95C505.1 49.95 521.95 54 536.95 61.25L536.275 60.95L546.9 11.275C530.075 4.75001 510.6 0.95 490.25 0.875H490.225C430.325 0.875 388.2 32.75 387.825 78.325C387.45 112.025 417.9 130.8 440.875 142.05C464.5 153.525 472.425 160.9 472.3 171.125C472.15 186.875 453.5 193.775 436.05 194.05C435.25 194.075 434.275 194.075 433.325 194.075C411.55 194.075 391.05 188.6 373.15 178.925L373.825 179.25L362.85 230.55C382.5 238.425 405.275 242.975 429.125 242.975C429.5 242.975 429.875 242.975 430.25 242.975H430.2C493.85 242.975 535.475 211.55 535.7 162.875L535.725 162.95ZM284.775 5.22502L186.625 239.4H122.575L74.2746 52.475C73.3496 43.375 67.7746 35.775 60.0246 31.975L59.8746 31.9C42.6746 23.45 22.6746 16.575 1.74961 12.25L0.0996094 11.975L1.54961 5.20001H104.65C118.7 5.20001 130.375 15.475 132.55 28.9L132.575 29.05L158.1 164.575L221.15 5.175L284.775 5.22502Z" fill="black"/>
</svg>
